
        <svg xmlns="http://www.w3.org/2000/svg" xmlns:xlink="http://www.w3.org/1999/xlink" version="1.1" width="3237.6237623762377" 
        height="1102.0400796440085" viewBox="0 0 3237.6237623762377 1102.0400796440085">
			
			<g transform="scale(11.881188118811881) translate(10, 10)">
				<defs id="SvgjsDefs10604"></defs><g id="SvgjsG10605" featureKey="symbolFeature-0" transform="matrix(0.8286450741216399,0,0,0.8286450741216399,-2.3407119678405826,-0.8286450741216399)" fill="#ffffff"><g xmlns="http://www.w3.org/2000/svg"><path d="M73.7,70.3c-1.1-2.5-2.3-5.3-2.2-8.4c1.8-3.7,2.1-8.4,2.1-13.7c0-8.1-3.4-26.9-34.5-26.9S4.7,40.1,4.7,48.2   c0,5.4,0.3,10,2.1,13.7c0.1,3.1-1.2,5.9-2.2,8.3c-1.8,4.1-4,9.3,3.3,12.6c2,0.9,3.9,1.4,5.6,1.4c1.3,0,2.6-0.3,3.7-0.9c0,0,0,0,0,0   c1.1,2.2,3.4,3.8,7,4.9c1.5,0.4,2.9,0.6,4.2,0.6c2.4,0,4.5-0.7,6.3-2c2.2-1.6,3.6-4.1,4.5-6.5c0.9,2.5,2.3,4.9,4.5,6.5   c1.8,1.4,3.9,2,6.3,2c1.3,0,2.7-0.2,4.2-0.6c3.7-1.1,6-2.6,7-4.9c0,0,0,0,0,0c1.1,0.6,2.3,0.9,3.7,0.9c1.7,0,3.6-0.5,5.6-1.4   C77.8,79.5,75.5,74.4,73.7,70.3z M39.1,24.8C59,24.8,70,33.1,70,48.2c0,12.2,0,20.9-30.9,20.9c-30.9,0-30.9-8.8-30.9-20.9   C8.3,33.1,19.2,24.8,39.1,24.8z M16.5,79.5c-0.2,0.2-0.5,0.4-0.8,0.6c-1.6,0.9-3.7,0.8-6.4-0.5c-4-1.8-3.5-3.3-1.5-7.9   c0.7-1.6,1.5-3.5,2-5.6c2.2,2,5.2,3.5,9.5,4.6c-0.2,0.6-0.5,1.3-0.7,1.9C17.7,75,16.7,77.3,16.5,79.5z M32.5,84.1   c-1.9,1.4-4.3,1.7-7.3,0.8c-2.6-0.7-4.2-1.7-4.8-3c-0.9-1.9,0.3-4.8,1.6-7.8c0.3-0.8,0.7-1.7,1-2.5c3.9,0.7,8.6,1,14.2,1.1   C36.9,76,35.7,81.6,32.5,84.1z M57.9,81.9c-0.6,1.2-2.2,2.2-4.8,3c-3.1,0.9-5.4,0.6-7.3-0.8c-3.5-2.6-4.4-8.4-4.7-11.4   c5.7-0.1,10.3-0.5,14.2-1.1c0.3,0.8,0.7,1.7,1,2.5C57.6,77.1,58.8,80,57.9,81.9z M68.9,79.6c-2.7,1.2-4.8,1.4-6.4,0.5   c-0.3-0.2-0.5-0.4-0.8-0.6c-0.2-2.2-1.2-4.6-2.1-6.9c-0.3-0.6-0.5-1.3-0.7-1.9c4.3-1.1,7.4-2.7,9.5-4.6c0.5,2.1,1.3,3.9,2,5.6   C72.5,76.4,72.9,77.8,68.9,79.6z M30.8,47.6c0,3-2.5,5.5-5.5,5.5s-5.5-2.5-5.5-5.5s2.5-5.5,5.5-5.5S30.8,44.6,30.8,47.6z M53,42.1   c-3,0-5.5,2.5-5.5,5.5s2.5,5.5,5.5,5.5c3,0,5.5-2.5,5.5-5.5S56,42.1,53,42.1z M47,58.9c0.8-0.5,1.1-1.7,0.5-2.5   c-0.5-0.8-1.7-1.1-2.5-0.5c-2.9,1.9-8.9,1.9-11.8,0c-0.8-0.5-2-0.3-2.5,0.5c-0.5,0.8-0.3,2,0.5,2.5c2.1,1.3,4.8,2.1,7.8,2.1   C42.1,61,44.9,60.3,47,58.9z"></path><circle cx="79.1" cy="27.9" r="6.4"></circle><circle cx="83.2" cy="5.1" r="4.1"></circle><circle cx="71" cy="14.6" r="5.4"></circle></g></g><g id="SvgjsG10606" featureKey="nameFeature-0" transform="matrix(1.4933156540554577,0,0,1.4933156540554577,88.14828750662727,0.7548119215726032)" fill="#ffffff"><path d="M23.92 35.08 c1.16 3.2 -1.04 5.36 -3.84 5.36 s-4.56 -1.4 -5.2 -3.92 l-0.2 0 c-1.16 2.68 -3.52 3.76 -6.2 3.76 c-3.96 0 -7.24 -2.48 -7.24 -9.72 c0 -7.6 3.6 -13 9.4 -13 c3.36 0 4.52 1.76 4.92 3.16 l0.16 0 l0.16 -2 c0.32 -0.24 1.76 -0.76 3.2 -0.76 c2.48 0 3.96 1.52 3.76 3.6 l-0.88 11.2 c-0.12 1.68 0.6 2.32 1.96 2.32 z M11.32 34.88 c1.8 0 3.28 -1.4 3.72 -4.56 l0.2 -2.72 c0.12 -3.88 -1.08 -4.6 -2.48 -4.6 c-2.52 0 -4.32 2.16 -4.32 7.04 c0 3.44 1.04 4.84 2.88 4.84 z M32.400000000000006 15.120000000000001 c-2.08 0 -3.84 -0.84 -3.84 -3.16 c0 -2.36 1.84 -3.76 4.52 -3.76 c2.4 0 3.76 1.16 3.76 3.16 c0 2.08 -1.44 3.76 -4.44 3.76 z M34.480000000000004 32.72 c-0.12 1.72 0.6 2.32 1.96 2.32 c1.12 3.2 -1.04 5.36 -3.84 5.36 c-3.76 0 -5.68 -2.56 -5.4 -6.96 l1.12 -14.72 c0.36 -0.24 1.72 -0.76 3.24 -0.76 c2.56 0 3.92 1.48 3.76 3.72 z M61.720000000000006 35.04 c1.16 3.2 -1.04 5.36 -4.28 5.36 c-2.76 0 -4.32 -1.36 -4.88 -3.4 l-0.44 0 c-0.84 2.04 -3.16 3.28 -5.84 3.28 c-3.96 0 -7.24 -2.48 -7.24 -9.72 c0 -7.6 3.6 -13 9.4 -13 c3.36 0 4.48 1.76 4.88 3.2 l0.2 0 l0.72 -9.64 c0.32 -0.24 1.76 -0.76 3.2 -0.76 c2.48 0 3.96 1.52 3.76 3.6 l-1.44 18.76 c-0.12 1.72 0.64 2.32 1.96 2.32 z M49.040000000000006 34.88 c1.84 0 3.36 -1.4 3.8 -4.52 l0.24 -3.44 c-0.08 -3.08 -1.04 -3.92 -2.6 -3.92 c-2.44 0 -4.24 2.24 -4.24 7.12 c0 3.24 1.08 4.76 2.8 4.76 z M80.88000000000001 32.88 c1.28 0.36 1.8 1.16 1.8 2.28 c0 2.8 -3.2 5.24 -8.2 5.24 c-6.28 0 -10.08 -3.92 -10.08 -10.28 c0 -7.08 4.68 -12.52 11.36 -12.52 c5.4 0 7.56 3.56 7.56 6.72 c0 4.6 -4.6 7.84 -11.2 9.32 c0.72 1.04 1.84 1.64 3.56 1.64 c2.16 0 3.92 -1 5.2 -2.4 z M75.24000000000001 23.24 c-1.8 0 -3.96 1.68 -4.12 5.88 c4.76 -1.36 5.88 -2.72 5.88 -4.16 c0 -1.12 -0.64 -1.72 -1.76 -1.72 z M109.76 35.04 c1.12 3.2 -1.08 5.36 -3.84 5.36 c-3.8 0 -5.72 -2.56 -5.44 -6.96 l0.52 -6.6 c0.16 -2.28 -0.68 -3.6 -2.72 -3.6 c-1.84 0 -3.04 1.24 -3.56 5.8 l-0.84 10.2 c-0.52 0.48 -1.48 0.76 -2.8 0.76 c-2.68 0 -4.32 -1.12 -4.04 -4.52 l0.76 -10.28 c0.12 -1.68 -0.64 -2.32 -1.96 -2.32 c-1.16 -3.16 1.04 -5.36 3.8 -5.36 c2.68 0 4.44 1.32 5.12 3.68 l0.24 0 c1.48 -2.56 4.08 -3.64 6.72 -3.64 c3.48 0 7 1.8 6.6 7.56 l-0.56 7.6 c-0.12 1.72 0.64 2.32 2 2.32 z"></path></g>
			</g>
		</svg>
	